<svg id="visual" viewBox="0 0 900 600" width="900" height="600" xmlns="http://www.w3.org/2000/svg" xmlns:xlink="http://www.w3.org/1999/xlink" version="1.1"><g transform="translate(59.76821889171492 546.3362832428666)"><path d="M203 -304.3C277.8 -225 363.3 -185.4 427.8 -110C492.3 -34.5 535.8 76.8 516.6 177.7C497.4 278.6 415.6 369.1 319.1 475.2C222.6 581.3 111.3 703.2 35.4 654.4C-40.4 605.6 -80.8 386.2 -199.4 287.3C-318 188.3 -514.7 209.7 -594.6 149.4C-674.6 89 -637.8 -53.2 -580.1 -175.4C-522.4 -297.7 -443.7 -400 -343.5 -471.1C-243.3 -542.3 -121.7 -582.1 -28.8 -542.5C64.1 -502.8 128.1 -383.7 203 -304.3" fill="#A67C52"></path></g></svg>