<svg id="visual" viewBox="0 0 960 540" width="960" height="540" xmlns="http://www.w3.org/2000/svg" xmlns:xlink="http://www.w3.org/1999/xlink" version="1.1"><g transform="translate(1008.4942489420093 504.12496396417293)"><path d="M293.8 -526C374.9 -462 430.8 -371.5 464.3 -279.4C497.8 -187.3 508.9 -93.7 519.4 6.1C530 105.8 540 211.7 509 308.1C478 404.5 406 491.5 314.3 562.3C222.7 633.2 111.3 687.8 11.8 667.5C-87.8 647.1 -175.7 551.8 -274.1 484.8C-372.5 417.9 -481.6 379.5 -551.5 303.4C-621.4 227.3 -652.2 113.7 -602.1 28.9C-552 -55.8 -421.1 -111.7 -330.4 -151.9C-239.8 -192 -189.5 -216.6 -141.2 -299.5C-92.8 -382.4 -46.4 -523.7 30 -575.6C106.3 -627.5 212.7 -590 293.8 -526" fill="#A67C52"></path></g></svg>