<svg id="visual" viewBox="0 0 900 600" width="900" height="600" xmlns="http://www.w3.org/2000/svg" xmlns:xlink="http://www.w3.org/1999/xlink" version="1.1"><g transform="translate(24.872829484957947 575.1948004434448)"><path d="M150.2 -169.8C241.7 -140.3 395.2 -159.3 453 -115.6C510.7 -71.8 472.7 34.7 426.3 126.5C379.9 218.2 325.1 295.2 252.7 308C180.3 320.8 90.1 269.4 -3.9 274.8C-98 280.2 -195.9 342.3 -282.8 334.2C-369.7 326.1 -445.4 247.7 -491.5 149.4C-537.7 51.1 -554.1 -67.2 -487.5 -123.2C-420.8 -179.2 -270.9 -172.9 -175.8 -201.2C-80.7 -229.4 -40.4 -292.2 -5.5 -284.7C29.4 -277.1 58.8 -199.2 150.2 -169.8" fill="#A67C52"></path></g></svg>