<svg id="visual" viewBox="0 0 960 540" width="960" height="540" xmlns="http://www.w3.org/2000/svg" xmlns:xlink="http://www.w3.org/1999/xlink" version="1.1"><rect x="0" y="0" width="960" height="540" fill="#f3f3f3"></rect><g transform="translate(990.5315759738862 -65.48383162126387)"><path d="M231 -369.7C314.8 -351.9 408.5 -320.9 433.4 -257.1C458.2 -193.3 414.1 -96.7 411.8 -1.3C409.5 94 449 188 437 274.2C425.1 360.3 361.8 438.7 280.4 504.2C199 569.7 99.5 622.3 5.3 613.2C-89 604.2 -178 533.3 -228.8 450.1C-279.6 367 -292.2 271.5 -351.1 194.4C-409.9 117.3 -514.9 58.7 -500.7 8.2C-486.4 -42.2 -352.8 -84.4 -304.2 -179.2C-255.6 -274 -292.1 -421.5 -255.5 -466.6C-219 -511.7 -109.5 -454.3 -17.9 -423.3C73.7 -392.3 147.3 -387.5 231 -369.7" fill="#A67C52"></path></g></svg>