<svg id="visual" viewBox="0 0 900 600" width="900" height="600" xmlns="http://www.w3.org/2000/svg" xmlns:xlink="http://www.w3.org/1999/xlink" version="1.1"><g transform="translate(890.7366393645796 596.9419368110333)"><path d="M252.8 -520.6C300.3 -410.5 292.6 -287.5 334.9 -198.6C377.3 -109.7 469.6 -54.8 532.1 36.1C594.6 127 627.3 254 596 362.1C564.8 470.2 469.6 559.4 359.7 622.4C249.7 685.4 124.8 722.2 1.5 719.6C-121.8 717 -243.7 675 -288.3 574.3C-333 473.6 -300.5 314.1 -364.2 208.6C-428 103.1 -588 51.6 -589.5 -0.9C-591 -53.3 -434.1 -106.7 -351.6 -179.7C-269.1 -252.7 -261 -345.5 -214.9 -456.3C-168.7 -567.1 -84.3 -696.1 9.2 -711.9C102.7 -727.8 205.3 -630.6 252.8 -520.6" fill="#A67C52"></path></g></svg>