<svg id="visual" viewBox="0 0 960 540" width="960" height="540" xmlns="http://www.w3.org/2000/svg" xmlns:xlink="http://www.w3.org/1999/xlink" version="1.1"><rect x="0" y="0" width="960" height="540" fill="#f3f3f3"></rect><g transform="translate(-24.584807232522678 531.9433293911384)"><path d="M87.3 -157.3C125 -129.5 175.5 -130 202.9 -108.5C230.4 -87 234.7 -43.5 241.9 4.2C249.1 51.8 259.2 103.7 245.5 148.8C231.7 194 194.1 232.5 149.2 261.5C104.3 290.4 52.2 309.7 18.3 277.9C-15.5 246.2 -31 163.4 -79.7 136.7C-128.4 109.9 -210.4 139.3 -202.6 125.9C-194.9 112.5 -97.4 56.3 -70.1 15.8C-42.7 -24.7 -85.5 -49.3 -111.6 -94.7C-137.8 -140 -147.4 -206 -126 -243.1C-104.7 -280.3 -52.3 -288.6 -13.8 -264.8C24.8 -241 49.7 -185 87.3 -157.3" fill="#A67C52"></path></g></svg>