<svg id="visual" viewBox="0 0 960 540" width="960" height="540" xmlns="http://www.w3.org/2000/svg" xmlns:xlink="http://www.w3.org/1999/xlink" version="1.1"><path d="M0 366L20 359.8C40 353.7 80 341.3 120 338.3C160 335.3 200 341.7 240 347.5C280 353.3 320 358.7 360 354.7C400 350.7 440 337.3 480 342C520 346.7 560 369.3 600 378.8C640 388.3 680 384.7 720 372.3C760 360 800 339 840 336.7C880 334.3 920 350.7 940 358.8L960 367L960 541L940 541C920 541 880 541 840 541C800 541 760 541 720 541C680 541 640 541 600 541C560 541 520 541 480 541C440 541 400 541 360 541C320 541 280 541 240 541C200 541 160 541 120 541C80 541 40 541 20 541L0 541Z" fill="#a67c52"></path><path d="M0 369L20 373.7C40 378.3 80 387.7 120 391.8C160 396 200 395 240 398.8C280 402.7 320 411.3 360 419.7C400 428 440 436 480 437.3C520 438.7 560 433.3 600 425.5C640 417.7 680 407.3 720 398.5C760 389.7 800 382.3 840 378.7C880 375 920 375 940 375L960 375L960 541L940 541C920 541 880 541 840 541C800 541 760 541 720 541C680 541 640 541 600 541C560 541 520 541 480 541C440 541 400 541 360 541C320 541 280 541 240 541C200 541 160 541 120 541C80 541 40 541 20 541L0 541Z" fill="#865e4a"></path><path d="M0 450L20 448.8C40 447.7 80 445.3 120 439.8C160 434.3 200 425.7 240 423.7C280 421.7 320 426.3 360 433C400 439.7 440 448.3 480 446C520 443.7 560 430.3 600 423.3C640 416.3 680 415.7 720 419.2C760 422.7 800 430.3 840 431.5C880 432.7 920 427.3 940 424.7L960 422L960 541L940 541C920 541 880 541 840 541C800 541 760 541 720 541C680 541 640 541 600 541C560 541 520 541 480 541C440 541 400 541 360 541C320 541 280 541 240 541C200 541 160 541 120 541C80 541 40 541 20 541L0 541Z" fill="#61453f"></path><path d="M0 501L20 497.8C40 494.7 80 488.3 120 490.2C160 492 200 502 240 504.8C280 507.7 320 503.3 360 499.8C400 496.3 440 493.7 480 492.3C520 491 560 491 600 490.5C640 490 680 489 720 483.7C760 478.3 800 468.7 840 468.2C880 467.7 920 476.3 940 480.7L960 485L960 541L940 541C920 541 880 541 840 541C800 541 760 541 720 541C680 541 640 541 600 541C560 541 520 541 480 541C440 541 400 541 360 541C320 541 280 541 240 541C200 541 160 541 120 541C80 541 40 541 20 541L0 541Z" fill="#3b2f2f"></path></svg>