<svg id="visual" viewBox="0 0 960 540" width="960" height="540" xmlns="http://www.w3.org/2000/svg" xmlns:xlink="http://www.w3.org/1999/xlink" version="1.1"><path d="M0 331L20 323.7C40 316.3 80 301.7 120 298.2C160 294.7 200 302.3 240 309.3C280 316.3 320 322.7 360 317.8C400 313 440 297 480 302.5C520 308 560 335 600 346.3C640 357.7 680 353.3 720 338.7C760 324 800 299 840 296.2C880 293.3 920 312.7 940 322.3L960 332L960 541L940 541C920 541 880 541 840 541C800 541 760 541 720 541C680 541 640 541 600 541C560 541 520 541 480 541C440 541 400 541 360 541C320 541 280 541 240 541C200 541 160 541 120 541C80 541 40 541 20 541L0 541Z" fill="#a67c52"></path><path d="M0 334L20 339.8C40 345.7 80 357.3 120 362.5C160 367.7 200 366.3 240 371C280 375.7 320 386.3 360 396.5C400 406.7 440 416.3 480 417.8C520 419.3 560 412.7 600 403C640 393.3 680 380.7 720 370C760 359.3 800 350.7 840 346.3C880 342 920 342 940 342L960 342L960 541L940 541C920 541 880 541 840 541C800 541 760 541 720 541C680 541 640 541 600 541C560 541 520 541 480 541C440 541 400 541 360 541C320 541 280 541 240 541C200 541 160 541 120 541C80 541 40 541 20 541L0 541Z" fill="#865e4a"></path><path d="M0 433L20 431.5C40 430 80 427 120 420.2C160 413.3 200 402.7 240 400.2C280 397.7 320 403.3 360 411.5C400 419.7 440 430.3 480 427.7C520 425 560 409 600 400.5C640 392 680 391 720 395.2C760 399.3 800 408.7 840 410.2C880 411.7 920 405.3 940 402.2L960 399L960 541L940 541C920 541 880 541 840 541C800 541 760 541 720 541C680 541 640 541 600 541C560 541 520 541 480 541C440 541 400 541 360 541C320 541 280 541 240 541C200 541 160 541 120 541C80 541 40 541 20 541L0 541Z" fill="#61453f"></path><path d="M0 494L20 490C40 486 80 478 120 480C160 482 200 494 240 497.3C280 500.7 320 495.3 360 491.3C400 487.3 440 484.7 480 483.2C520 481.7 560 481.3 600 480.5C640 479.7 680 478.3 720 472C760 465.7 800 454.3 840 453.8C880 453.3 920 463.7 940 468.8L960 474L960 541L940 541C920 541 880 541 840 541C800 541 760 541 720 541C680 541 640 541 600 541C560 541 520 541 480 541C440 541 400 541 360 541C320 541 280 541 240 541C200 541 160 541 120 541C80 541 40 541 20 541L0 541Z" fill="#3b2f2f"></path></svg>